<?xml version="1.0" standalone="no"?>
<!DOCTYPE svg PUBLIC "-//W3C//DTD SVG 20010904//EN"
 "http://www.w3.org/TR/2001/REC-SVG-20010904/DTD/svg10.dtd">
<svg version="1.0" xmlns="http://www.w3.org/2000/svg"
 width="394.000000pt" height="100.000000pt" viewBox="0 0 394.000000 100.000000"
 preserveAspectRatio="xMidYMid meet">

<g transform="translate(0.000000,100.000000) scale(0.100000,-0.100000)"
fill="#000000" stroke="none">
<path d="M86 768 c-13 -19 -16 -59 -16 -238 0 -233 6 -260 54 -260 34 0 46 19
46 77 0 48 4 58 38 94 l38 41 67 -95 c82 -116 90 -123 125 -111 51 18 42 52
-43 170 l-76 105 50 57 c27 31 61 68 75 81 28 26 34 69 14 89 -29 29 -56 12
-165 -103 -59 -63 -111 -115 -115 -115 -5 0 -8 46 -8 103 0 67 -4 107 -12 115
-19 19 -55 14 -72 -10z m64 -145 l5 -133 125 135 c86 93 131 134 144 132 11
-1 21 -7 23 -13 2 -6 -33 -50 -78 -97 -44 -48 -79 -93 -76 -100 3 -6 37 -57
77 -112 40 -55 73 -107 74 -115 1 -8 -8 -16 -19 -18 -15 -1 -38 24 -98 107
l-77 110 -49 -52 c-46 -48 -50 -57 -53 -107 -3 -47 -6 -55 -23 -55 -19 0 -20
8 -23 215 -1 118 0 221 3 228 3 7 13 12 22 10 16 -3 19 -20 23 -135z"/>
<path d="M1194 765 c-15 -23 -15 -27 0 -50 29 -44 86 -28 86 25 0 53 -57 69
-86 25z m64 -22 c5 -17 -26 -29 -40 -15 -6 6 -7 15 -3 22 9 14 37 9 43 -7z"/>
<path d="M2051 777 c-6 -8 -49 -114 -96 -237 -82 -213 -85 -224 -70 -247 12
-17 24 -23 43 -21 28 3 38 17 72 101 l19 47 71 0 c70 0 71 -1 81 -30 27 -75
54 -115 81 -118 19 -2 31 3 43 21 15 23 12 33 -71 238 -47 118 -92 224 -100
237 -16 25 -55 30 -73 9z m142 -241 c86 -212 94 -249 54 -233 -8 3 -27 37 -42
76 l-28 71 -87 0 -88 0 -29 -72 c-22 -56 -34 -74 -51 -76 -13 -2 -22 2 -22 10
0 12 154 421 166 440 3 5 13 8 22 6 12 -2 45 -72 105 -222z"/>
<path d="M2054 587 l-31 -82 60 -3 c32 -2 61 -1 64 1 3 4 -53 156 -61 164 -1
1 -16 -35 -32 -80z m51 -34 c5 -20 3 -23 -19 -23 -24 0 -24 2 -14 31 11 32 21
29 33 -8z"/>
<path d="M3462 778 c-7 -7 -12 -39 -12 -75 l0 -63 -37 0 c-59 0 -119 -35 -150
-87 -55 -95 -25 -216 66 -262 57 -29 185 -28 206 2 23 32 22 443 -1 475 -17
24 -53 29 -72 10z m53 -248 l0 -225 -75 -3 c-65 -2 -81 0 -109 20 -69 47 -89
133 -51 209 29 56 72 81 138 77 l52 -3 0 71 c0 74 4 87 30 82 13 -3 15 -33 15
-228z"/>
<path d="M3368 552 c-42 -22 -60 -56 -55 -109 5 -51 20 -71 65 -90 27 -11 38
-11 60 -1 26 13 27 16 30 106 1 50 1 92 0 92 -2 0 -17 4 -35 9 -24 7 -40 5
-65 -7z m70 -24 c16 -16 16 -130 0 -146 -18 -18 -44 -14 -74 12 -22 18 -28 32
-27 61 2 62 66 108 101 73z"/>
<path d="M3604 765 c-15 -23 -15 -27 0 -50 29 -44 86 -28 86 25 0 53 -57 69
-86 25z m64 -22 c5 -17 -26 -29 -40 -15 -6 6 -7 15 -3 22 9 14 37 9 43 -7z"/>
<path d="M584 626 c-70 -32 -115 -136 -94 -217 26 -97 93 -146 188 -136 64 7
82 20 82 58 0 37 -26 50 -82 43 -31 -4 -49 -1 -63 10 -19 14 -14 15 57 16 42
0 88 4 102 10 23 8 26 15 26 55 0 121 -116 207 -216 161z m146 -54 c37 -36 61
-106 45 -132 -4 -6 -49 -10 -111 -10 -61 0 -104 -4 -104 -10 0 -5 13 -24 29
-42 27 -30 33 -32 84 -30 34 1 58 -2 63 -9 12 -20 -27 -39 -82 -39 -42 0 -59
5 -85 27 -77 65 -80 175 -6 251 27 28 38 32 80 32 44 0 54 -4 87 -38z"/>
<path d="M620 558 c-22 -7 -60 -53 -60 -72 0 -3 38 -6 85 -6 92 0 98 6 53 57
-24 26 -46 32 -78 21z m56 -33 c17 -13 15 -14 -31 -14 -46 0 -48 1 -31 14 11
8 25 15 31 15 6 0 20 -7 31 -15z"/>
<path d="M835 616 c-15 -22 -12 -32 46 -179 62 -160 74 -176 118 -162 14 4 37
50 80 158 34 84 61 157 61 163 0 6 -9 19 -20 29 -16 15 -26 17 -47 9 -21 -7
-32 -26 -58 -93 -18 -46 -35 -79 -38 -74 -3 5 -17 40 -31 78 -15 37 -31 74
-37 82 -18 21 -57 15 -74 -11z m92 -96 c60 -152 49 -150 98 -25 34 88 46 111
64 113 32 5 27 -18 -33 -168 -74 -184 -77 -184 -151 4 -31 80 -53 150 -50 156
17 27 41 1 72 -80z"/>
<path d="M1196 618 c-13 -18 -16 -52 -16 -163 0 -111 3 -145 16 -163 17 -24
53 -29 72 -10 17 17 17 329 0 346 -19 19 -55 14 -72 -10z m59 -163 c0 -143 -1
-150 -20 -150 -19 0 -20 8 -23 140 -1 76 0 145 3 153 3 7 13 12 22 10 16 -3
18 -18 18 -153z"/>
<path d="M1345 617 c-12 -17 -15 -54 -15 -162 0 -153 9 -185 54 -185 38 0 46
19 47 110 1 106 8 131 41 149 23 13 29 13 52 -2 25 -17 26 -21 26 -115 0 -108
13 -142 55 -142 39 0 55 35 55 120 -1 125 -20 177 -84 224 -23 17 -44 21 -122
23 -86 1 -96 -1 -109 -20z m62 -18 c8 -8 17 -8 31 0 11 6 41 11 65 11 91 0
130 -67 125 -215 -3 -82 -5 -90 -23 -90 -18 0 -20 8 -25 100 -6 111 -16 138
-58 153 -34 12 -84 -6 -98 -34 -4 -11 -11 -64 -14 -119 -5 -92 -7 -100 -25
-100 -19 0 -20 8 -23 140 -1 76 0 145 2 152 6 16 28 17 43 2z"/>
<path d="M2282 628 c-21 -21 -14 -53 39 -187 l52 -129 -19 -38 c-11 -22 -31
-45 -46 -52 -41 -19 -53 -48 -33 -78 20 -30 52 -31 95 -1 51 34 64 58 146 260
72 181 75 189 59 213 -17 26 -56 32 -73 12 -6 -7 -23 -44 -38 -83 -15 -38 -30
-74 -34 -78 -4 -5 -20 22 -34 60 -15 37 -34 78 -42 91 -16 24 -53 29 -72 10z
m97 -130 c25 -59 47 -105 50 -102 3 3 24 51 46 107 33 82 45 103 63 105 13 2
22 -2 22 -10 0 -18 -126 -333 -152 -380 -23 -40 -76 -75 -102 -65 -25 10 -19
26 18 48 21 12 43 38 56 66 l21 45 -56 140 c-30 76 -53 144 -49 149 17 28 41
-3 83 -103z"/>
<path d="M2694 626 c-70 -32 -115 -136 -94 -217 26 -97 93 -146 188 -136 64 7
82 20 82 58 0 37 -26 50 -82 43 -31 -4 -49 -1 -63 10 -19 14 -14 15 57 16 42
0 88 4 102 10 23 8 26 15 26 55 0 121 -116 207 -216 161z m146 -54 c37 -36 61
-106 45 -132 -4 -6 -49 -10 -111 -10 -61 0 -104 -4 -104 -10 0 -5 13 -24 29
-42 27 -30 33 -32 84 -30 34 1 58 -2 63 -9 12 -20 -27 -39 -82 -39 -42 0 -59
5 -85 27 -77 65 -80 175 -6 251 27 28 38 32 80 32 44 0 54 -4 87 -38z"/>
<path d="M2730 558 c-22 -7 -60 -53 -60 -72 0 -3 38 -6 85 -6 92 0 98 6 53 57
-24 26 -46 32 -78 21z m56 -33 c17 -13 15 -14 -31 -14 -46 0 -48 1 -31 14 11
8 25 15 31 15 6 0 20 -7 31 -15z"/>
<path d="M2976 618 c-13 -18 -16 -52 -16 -163 0 -158 10 -189 58 -183 39 4 52
40 52 144 0 109 13 130 74 119 44 -9 66 6 66 46 0 21 -7 32 -30 44 -33 17 -83
20 -110 5 -13 -7 -21 -7 -25 0 -11 18 -53 11 -69 -12z m59 -18 c4 -7 12 -7 25
0 28 15 106 12 120 -5 19 -23 2 -35 -46 -33 -35 1 -50 -4 -67 -21 -19 -19 -23
-36 -27 -129 -5 -99 -7 -107 -25 -107 -19 0 -20 8 -23 140 -1 76 0 145 2 152
6 15 32 17 41 3z"/>
<path d="M3606 618 c-13 -18 -16 -52 -16 -163 0 -111 3 -145 16 -163 17 -24
53 -29 72 -10 17 17 17 329 0 346 -19 19 -55 14 -72 -10z m59 -163 c0 -143 -1
-150 -20 -150 -19 0 -20 8 -23 140 -1 76 0 145 3 153 3 7 13 12 22 10 16 -3
18 -18 18 -153z"/>
</g>
</svg>
